<svg height="496pt" viewBox="-3 0 496 496" width="496pt" xmlns="http://www.w3.org/2000/svg"><path d="m280 488h-80l32-48-8-32 24-8 16.878906-101.121094 43.519532 11.601563c20.960937 5.597656 35.601562 24.640625 35.601562 46.398437v131.121094zm0 0" fill="#b27946"/><path d="m176 344c1.921875 0 3.839844-.320312 5.519531-.960938l32.960938 13.121094-38.480469 131.839844-39.839844-131.28125 34.320313-13.679688c1.679687.640626 3.597656.960938 5.519531.960938zm0 0" fill="#e6e9ed"/><path d="m72 488h-64v-131.121094c0-21.757812 14.640625-40.800781 35.601562-46.398437l43.519532-11.601563 16.878906 101.121094 24 8-8 32 32 48zm0 0" fill="#b27946"/><path d="m176 488 38.480469-131.839844 9.519531 3.839844v-72l40.878906 10.878906-16.878906 101.121094-24 8 8 32-32 48zm0 0" fill="#cf9e76"/><path d="m136.160156 356.71875 39.839844 131.28125h-24l-32-48 8-32-24-8-16.878906-101.121094 40.878906-10.878906v72zm0 0" fill="#cf9e76"/><path d="m181.519531 343.039062c6.082031-2.320312 10.480469-8.160156 10.480469-15.039062 0-6.558594-4.078125-12.320312-9.761719-14.71875l41.761719-17.28125v64l-9.519531-3.839844zm0 0" fill="#ff826e"/><path d="m128 296 42.480469 16.960938v.078124c-6.082031 2.242188-10.480469 8.082032-10.480469 14.960938s4.398438 12.71875 10.480469 15.039062l-34.320313 13.679688-8.160156 3.28125zm0 0" fill="#ff826e"/><path d="m312 80h-11.28125c-12.796875 0-24.558594-6.960938-30.796875-18.078125-9.28125-16.640625-22.640625-30.082031-38.480469-39.441406-15.761718-9.359375-34.082031-14.480469-53.121094-14.480469-15.921874 0-31.359374 3.601562-45.359374 10.320312-14 6.800782-26.480469 16.558594-36.402344 29.039063l-.558594.640625c-9.761719 4.960938-17.761719 12.398438-23.359375 21.359375-5.519531 8.960937-8.640625 19.441406-8.640625 30.402344v76.238281c0-17.679688 14.320312-32 32-32v-32l7.839844 7.839844c10.558594 10.558594 23.839844 18.082031 38.320312 21.679687 6.558594 1.679688 13.28125 2.480469 20 2.480469h1.839844c5.519531 0 10.558594-2.238281 14.160156-5.839844 3.601563-3.601562 5.839844-8.640625 5.839844-14.160156 0-1.359375-.160156-2.71875-.398438-4h.398438l14.238281 3.519531c11.761719 2.960938 23.921875 4.480469 36.082031 4.480469 7.441407 0 14.71875-.960938 21.679688-2.800781v18.800781c17.679688 0 32 14.320312 32 32v-66.6875c9.886719-7.777344 18.175781-17.671875 24-29.3125zm0 0" fill="#fcd770"/><g fill="#f0d0b4"><path d="m170.480469 312.960938-42.480469-16.960938v-32c28.640625 14.238281 38.160156 16 48 16 18 0 34.640625-6 48-16v32l-41.761719 17.28125c-1.917969-.800781-4-1.28125-6.238281-1.28125-1.921875 0-3.839844.320312-5.519531 1.039062zm0 0"/><path d="m288 176c0 17.679688-14.320312 32-32 32h-.398438c.238282-2.640625.398438-5.28125.398438-8v-56c17.679688 0 32 14.320312 32 32zm0 0"/><path d="m184 124c0-1.359375-.160156-2.71875-.398438-4h.398438l14.238281 3.519531c11.761719 2.960938 23.921875 4.480469 36.082031 4.480469 7.441407 0 14.71875-.960938 21.679688-2.800781v74.800781c0 2.71875-.160156 5.359375-.398438 8-2.242187 22.878906-14.160156 42.878906-31.601562 56-13.359375 10-30 16-48 16-9.839844 0-19.359375-1.761719-48-16-3.039062-2.320312-5.921875-4.800781-8.558594-7.441406-12.722656-12.71875-21.203125-29.679688-23.042968-48.558594-.238282-2.640625-.398438-5.28125-.398438-8v-88l7.839844 7.839844c10.558594 10.558594 23.839844 18.082031 38.320312 21.679687 6.558594 1.679688 13.28125 2.480469 20 2.480469h1.839844c5.519531 0 10.558594-2.238281 14.160156-5.839844 3.601563-3.601562 5.839844-8.640625 5.839844-14.160156zm0 0"/><path d="m96 144v56c0 2.71875.160156 5.359375.398438 8h-.398438c-17.679688 0-32-14.320312-32-32s14.320312-32 32-32zm0 0"/></g><path d="m192 328c0 6.878906-4.398438 12.71875-10.480469 15.039062-1.679687.640626-3.597656.960938-5.519531.960938s-3.839844-.320312-5.519531-.960938c-6.082031-2.320312-10.480469-8.160156-10.480469-15.039062s4.398438-12.71875 10.480469-14.960938c1.679687-.71875 3.597656-1.039062 5.519531-1.039062 2.238281 0 4.320312.480469 6.238281 1.28125 5.683594 2.398438 9.761719 8.160156 9.761719 14.71875zm0 0" fill="#ff826e"/><path d="m472 456 8 32h-96l8-32zm0 0" fill="#fcd770"/><path d="m432 336 40-40-16 160h-48l-16-160zm0 0" fill="#ffeaa7"/><path d="m472 296-40 40-40-40zm0 0" fill="#ffc729"/><path d="m472 214.800781-16 21.757813.71875 27.441406-24.71875-9.199219-24.71875 9.199219.71875-27.441406-16-21.757813 25.199219-7.761719 14.800781-22.640624 14.800781 22.640624zm0 0" fill="#ff826e"/><path d="m398.96875 275.632812 33.03125-12.296874 33.03125 12.296874-.960938-36.554687 21.042969-28.621094-33.167969-10.234375-19.945312-30.46875-19.945312 30.46875-33.167969 10.234375 21.042969 28.621094zm23.3125-61.824218 9.71875-14.839844 9.71875 14.839844 17.167969 5.304687-10.957031 14.902344.484374 18.351563-16.414062-6.101563-16.414062 6.109375.484374-18.351562-10.957031-14.902344zm0 0"/><path d="m478.246094 448h-13.40625l16-160h-97.679688l16 160h-13.40625l-12 48h116.492188zm-46.246094-123.3125-20.6875-20.6875h41.375zm-29.808594-7.183594 21.808594 21.808594v52.6875h16v-52.6875l21.808594-21.808594-13.046875 130.496094h-8.761719v-40h-16v40h-8.761719zm-7.945312 162.496094 4-16h67.507812l4 16zm0 0"/><path d="m224 160c0 4.417969-3.582031 8-8 8s-8-3.582031-8-8 3.582031-8 8-8 8 3.582031 8 8zm0 0"/><path d="m144 160c0 4.417969-3.582031 8-8 8s-8-3.582031-8-8 3.582031-8 8-8 8 3.582031 8 8zm0 0"/><path d="m310.433594 302.777344-78.433594-20.929688v-14.023437c15.777344-13.046875 26.863281-31.511719 30.574219-52.496094 18.921875-3.152344 33.425781-19.527344 33.425781-39.328125v-62.734375c9.425781-8.089844 17.351562-18.082031 23.160156-29.679687l5.785156-11.585938h-24.226562c-9.871094 0-18.992188-5.359375-23.789062-14-19.875-35.777344-57.648438-58-98.578126-58-34.167968 0-66.015624 15.175781-87.535156 41.671875-21.519531 11.488281-34.816406 33.585937-34.816406 58.105469v76.222656c0 19.800781 14.503906 36.175781 33.425781 39.335938 3.710938 20.976562 14.789063 39.441406 30.574219 52.496093v14.023438l-78.433594 20.921875c-24.46875 6.519531-41.566406 28.765625-41.566406 54.09375v139.128906h352v-139.128906c0-25.328125-17.097656-47.574219-41.566406-54.09375zm-54.664063 1.976562-14.867187 89.183594-26.460938 8.816406 8.933594 35.757813-27.65625 41.488281h-9.046875l32.992187-113.121094 12.335938 4.9375v-73.402344zm-144.671875 89.183594-14.867187-89.183594 23.769531-6.339844v73.402344l12.34375-4.9375 32.992188 113.121094h-9.046876l-27.664062-41.496094 8.933594-35.761718zm59.847656-42.496094c1.628907.351563 3.320313.558594 5.054688.558594s3.425781-.207031 5.054688-.558594l23.679687 9.460938-28.734375 98.523437-28.734375-98.523437zm45.054688-3.257812-19.535156-7.816406c2.199218-3.625 3.535156-7.824219 3.535156-12.367188 0-4.535156-1.335938-8.742188-3.535156-12.367188l19.535156-7.816406zm-32-20.183594c0 4.414062-3.59375 8-8 8s-8-3.585938-8-8 3.59375-8 8-8 8 3.585938 8 8zm-28.464844 12.367188-19.535156 7.816406v-40.367188l19.535156 7.816406c-2.199218 3.625-3.535156 7.832032-3.535156 12.367188 0 4.542969 1.335938 8.742188 3.535156 12.367188zm108.464844-141.839844v-45.046875c9.289062 3.3125 16 12.113281 16 22.527343 0 10.417969-6.710938 19.207032-16 22.519532zm16-54.320313c-4.671875-3.535156-10.054688-6.183593-16-7.390625v-5.558594c5.558594-1.816406 10.910156-4.121093 16-6.914062zm-180.425781-89.046875 1.578125-.792968 1.640625-2.046876c18.464843-23.082031 46.007812-36.320312 75.558593-36.320312 35.121094 0 67.527344 19.070312 84.59375 49.777344 7.152344 12.863281 20.335938 21.160156 34.902344 22.132812-14.6875 20.066406-38.007812 32.089844-63.511718 32.089844-11.511719 0-23.015626-1.414062-34.183594-4.207031l-10.328125-2.585938c-4.230469-10.09375-14.214844-17.207031-25.824219-17.207031h-4v16h4c6.617188 0 12 5.382812 12 12 0 3.199219-1.246094 6.214844-3.511719 8.488281-2.273437 2.265625-5.289062 3.511719-8.488281 3.511719h-1.847656c-6.074219 0-12.152344-.742188-18.054688-2.222656-13.089844-3.273438-25.050781-10.042969-34.585937-19.585938l-5.511719-5.503906v-4.6875h-16v32.808594c-5.945312 1.214844-11.328125 3.855468-16 7.390625v-44.421875c0-19.015625 10.566406-36.113282 27.574219-44.617188zm-27.574219 120.839844c0-10.414062 6.710938-19.214844 16-22.527344v45.046875c-9.289062-3.304687-16-12.105469-16-22.519531zm32 24v-69.425781c10.511719 8.859375 22.816406 15.378906 36.214844 18.730469 7.167968 1.792968 14.554687 2.695312 21.9375 2.695312h1.847656c7.480469 0 14.511719-2.910156 19.800781-8.207031 3.824219-3.824219 6.351563-8.570313 7.488281-13.722657l4.984376 1.25c12.429687 3.105469 25.238281 4.679688 38.0625 4.679688 4.625 0 9.183593-.335938 13.664062-.976562v64.976562c0 39.695312-32.304688 72-72 72s-72-32.304688-72-72zm72 88c14.40625 0 27.984375-3.550781 40-9.710938v12.296876l-34.945312 13.972656c-1.628907-.351563-3.320313-.558594-5.054688-.558594s-3.425781.207031-5.054688.558594l-34.945312-13.972656v-12.296876c12.015625 6.160157 25.59375 9.710938 40 9.710938zm-160 68.871094c0-18.09375 12.207031-33.984375 29.695312-38.648438l35.007813-9.335937 16.199219 97.167969 21.539062 7.183593-7.066406 28.242188 25.671875 38.519531h-57.046875v-104h-16v104h-48zm320 123.128906h-48v-104h-16v104h-57.046875l25.671875-38.503906-7.066406-28.238282 21.539062-7.1875 16.199219-97.167968 35.007813 9.335937c17.488281 4.648438 29.695312 20.546875 29.695312 38.632813zm0 0"/><path d="m176 248c22.054688 0 40-17.945312 40-40h-16c0 13.230469-10.769531 24-24 24s-24-10.769531-24-24h-16c0 22.054688 17.945312 40 40 40zm0 0"/></svg>