<?xml version="1.0"?>
<svg xmlns="http://www.w3.org/2000/svg" viewBox="0 0 64 64" width="512" height="512"><g id="Filled_outline" data-name="Filled outline"><path d="M14,21A18,18,0,0,1,32,3h0A18,18,0,0,1,50,21V58c-3,0-3,3-6,3s-2.994-3-6-3-3,3-6,3-3-3-6-3-3,3-6,3-3-3-6-3Z" style="fill:#cfdfe8"/><path d="M40,36a6,6,0,0,0,6-6H34A6,6,0,0,0,40,36Z" style="fill:#fcf05a"/><path d="M24,36a6,6,0,0,0,6-6H18A6,6,0,0,0,24,36Z" style="fill:#fcf05a"/><path d="M37.888,30a2.227,2.227,0,0,0-.138.75,2.25,2.25,0,0,0,4.5,0,2.227,2.227,0,0,0-.138-.75Z" style="fill:#dd3e46"/><path d="M40,24h0a6,6,0,0,1,6,6v0a0,0,0,0,1,0,0H34a0,0,0,0,1,0,0v0A6,6,0,0,1,40,24Z" style="fill:#394d5c"/><path d="M21.888,30a2.227,2.227,0,0,0-.138.75,2.25,2.25,0,0,0,4.5,0,2.227,2.227,0,0,0-.138-.75Z" style="fill:#dd3e46"/><path d="M24,24h0a6,6,0,0,1,6,6v0a0,0,0,0,1,0,0H18a0,0,0,0,1,0,0v0A6,6,0,0,1,24,24Z" style="fill:#394d5c"/><path d="M23.632,40.566a10.965,10.965,0,0,1-7.339-2.859L17.7,36.29a8.981,8.981,0,0,0,8.979,1.761l.632,1.9A11.6,11.6,0,0,1,23.632,40.566Z" style="fill:#5a6470"/><path d="M40.368,40.566a11.6,11.6,0,0,1-3.684-.617l.632-1.9a9.066,9.066,0,0,0,8.977-1.758l1.414,1.414A10.965,10.965,0,0,1,40.368,40.566Z" style="fill:#5a6470"/><rect x="26" y="44" width="12" height="2" style="fill:#5a6470"/><rect x="29" y="48" width="6" height="2" style="fill:#5a6470"/><path d="M43.105,14.447A11.158,11.158,0,0,0,32.121,7.993l-.245-1.985A13.368,13.368,0,0,1,44.9,13.553Z" style="fill:#5a6470"/><rect x="44" y="16" width="2" height="2" style="fill:#5a6470"/><path d="M16.293,60.208a4.731,4.731,0,0,0,7.415,0,2.782,2.782,0,0,1,4.588,0,4.729,4.729,0,0,0,7.414,0,2.779,2.779,0,0,1,4.583,0,4.729,4.729,0,0,0,7.414,0A2.946,2.946,0,0,1,50,59h1V21a19,19,0,0,0-38,0V59h1A2.949,2.949,0,0,1,16.293,60.208ZM15,21a17,17,0,0,1,34,0V57.1a5.256,5.256,0,0,0-2.708,1.693,2.78,2.78,0,0,1-4.584,0,4.727,4.727,0,0,0-7.412,0,2.781,2.781,0,0,1-4.586,0,4.731,4.731,0,0,0-7.415,0,2.782,2.782,0,0,1-4.588,0A5.266,5.266,0,0,0,15,57.1Z"/><path d="M27.316,39.949l-.632-1.9A8.981,8.981,0,0,1,17.7,36.29l-1.412,1.417a10.965,10.965,0,0,0,7.339,2.859A11.6,11.6,0,0,0,27.316,39.949Z"/><path d="M37.316,38.051l-.632,1.9a11.6,11.6,0,0,0,3.684.617,10.965,10.965,0,0,0,7.339-2.859l-1.414-1.414A9.066,9.066,0,0,1,37.316,38.051Z"/><rect x="26" y="44" width="12" height="2"/><rect x="29" y="48" width="6" height="2"/><path d="M43.105,14.447l1.79-.894A13.368,13.368,0,0,0,31.876,6.008l.245,1.985A11.158,11.158,0,0,1,43.105,14.447Z"/><rect x="44" y="16" width="2" height="2"/><path d="M40,23a7,7,0,1,0,7,7A7.008,7.008,0,0,0,40,23Zm0,12a5.008,5.008,0,0,1-4.9-4h1.674a3.233,3.233,0,0,0,6.45,0H44.9A5.008,5.008,0,0,1,40,35Zm-1.225-4h2.45a1.25,1.25,0,0,1-2.45,0ZM35.1,29a5,5,0,0,1,9.8,0Z"/><path d="M24,37a7,7,0,1,0-7-7A7.008,7.008,0,0,0,24,37Zm0-12a5.008,5.008,0,0,1,4.9,4H19.1A5.008,5.008,0,0,1,24,25Zm1.225,6a1.25,1.25,0,0,1-2.45,0Zm-4.45,0a3.233,3.233,0,0,0,6.45,0H28.9a5,5,0,0,1-9.8,0Z"/></g></svg>
