<?xml version="1.0"?>
<svg xmlns="http://www.w3.org/2000/svg" viewBox="0 0 64 64" width="512" height="512"><g id="Filled_outline" data-name="Filled outline"><path d="M20,17s0,9,9,9V22s-5,0-5-5Z" style="fill:#4f97d5"/><path d="M12,37c0-3,3-6,10-6v4s-6,0-6,3a2.156,2.156,0,0,1-2.034,2h0C12,40,12,38.3,12,37Z" style="fill:#4f97d5"/><path d="M52,37c0-3-3-6-10-6v4s6,0,6,3a2.156,2.156,0,0,0,2.034,2h0C52,40,52,38.3,52,37Z" style="fill:#4f97d5"/><path d="M44,17s0,9-9,9V22s5,0,5-5Z" style="fill:#4f97d5"/><rect x="25" y="43" width="4" height="14" style="fill:#4f97d5"/><rect x="35" y="43" width="4" height="14" transform="translate(74 100) rotate(-180)" style="fill:#4f97d5"/><circle cx="32" cy="34" r="13" style="fill:#7cb8eb"/><path d="M22,19a8,8,0,0,0,8-8H14A8,8,0,0,0,22,19Z" style="fill:#fcf05a"/><path d="M19.184,11A2.962,2.962,0,0,0,19,12a3,3,0,0,0,6,0,2.962,2.962,0,0,0-.184-1Z" style="fill:#e4544f"/><path d="M22,3h0a8,8,0,0,1,8,8v0a0,0,0,0,1,0,0H14a0,0,0,0,1,0,0v0A8,8,0,0,1,22,3Z" style="fill:#394d5c"/><path d="M42,19a8,8,0,0,0,8-8H34A8,8,0,0,0,42,19Z" style="fill:#fcf05a"/><path d="M39.184,11A2.962,2.962,0,0,0,39,12a3,3,0,0,0,6,0,2.962,2.962,0,0,0-.184-1Z" style="fill:#e4544f"/><path d="M42,3h0a8,8,0,0,1,8,8v0a0,0,0,0,1,0,0H34a0,0,0,0,1,0,0v0A8,8,0,0,1,42,3Z" style="fill:#394d5c"/><path d="M31.7,42.711l-1.411-1.418A7.165,7.165,0,0,1,38.447,40.1l-.894,1.79A5.155,5.155,0,0,0,31.7,42.711Z" style="fill:#394d5c"/><path d="M21,57h8a0,0,0,0,1,0,0v4a0,0,0,0,1,0,0H19a0,0,0,0,1,0,0V59A2,2,0,0,1,21,57Z" style="fill:#7cb8eb"/><path d="M35,57H45a0,0,0,0,1,0,0v4a0,0,0,0,1,0,0H37a2,2,0,0,1-2-2V57A0,0,0,0,1,35,57Z" transform="translate(80 118) rotate(-180)" style="fill:#7cb8eb"/><path d="M45.484,30.287a13.976,13.976,0,0,0-3.4-5.969,10.167,10.167,0,0,0,2.543-4.712,9,9,0,1,0-6.2-.347,3.643,3.643,0,0,1-2.02,1.464,13.823,13.823,0,0,0-8.824,0,3.643,3.643,0,0,1-2.02-1.464,9,9,0,1,0-6.2.347,10.167,10.167,0,0,0,2.543,4.712,13.976,13.976,0,0,0-3.4,5.969C13,31.227,11,34.329,11,37a6.1,6.1,0,0,0,.324,2.367A2.6,2.6,0,0,0,13.97,41,3.134,3.134,0,0,0,17,38c0-.615.57-1.038,1.262-1.33A14.025,14.025,0,0,0,24,45.473V56H21a3,3,0,0,0-3,3v3H30V47.84a12.58,12.58,0,0,0,4,0V62H46V59a3,3,0,0,0-3-3H40V45.473a14.025,14.025,0,0,0,5.738-8.8C46.43,36.962,47,37.385,47,38a3.134,3.134,0,0,0,3.03,3,2.6,2.6,0,0,0,2.641-1.619A6.12,6.12,0,0,0,53,37C53,34.329,51,31.227,45.484,30.287ZM18.032,34.623C15.556,35.455,15,36.89,15,38a1.168,1.168,0,0,1-1.03,1c-.637,0-.727-.224-.8-.4A4.633,4.633,0,0,1,13,37c0-1.734,1.375-3.751,5.1-4.6A14.027,14.027,0,0,0,18,34C18,34.21,18.022,34.415,18.032,34.623ZM40.6,22.978a14,14,0,0,0-1.818-1.215,5.165,5.165,0,0,0,1.6-1.916A8.925,8.925,0,0,0,42,20c.146,0,.288-.015.433-.022A7.7,7.7,0,0,1,40.6,22.978ZM42,4a7.011,7.011,0,0,1,6.929,6H35.071A7.011,7.011,0,0,1,42,4Zm2,8a2,2,0,0,1-4,0Zm-8.929,0H38a4,4,0,0,0,8,0h2.929a7,7,0,0,1-13.858,0ZM22,4a7.011,7.011,0,0,1,6.929,6H15.071A7.011,7.011,0,0,1,22,4Zm2,8a2,2,0,0,1-4,0Zm-8.929,0H18a4,4,0,0,0,8,0h2.929a7,7,0,0,1-13.858,0Zm6.5,7.978c.145.007.287.022.433.022a8.925,8.925,0,0,0,1.612-.153,5.165,5.165,0,0,0,1.6,1.916A14,14,0,0,0,23.4,22.978,7.7,7.7,0,0,1,21.567,19.978ZM28,60H20V59a1,1,0,0,1,1-1h7Zm0-4H26V46.63a13.864,13.864,0,0,0,2,.78Zm15,2a1,1,0,0,1,1,1v1H36V58Zm-7-2V47.41a13.864,13.864,0,0,0,2-.78V56ZM32,46A12,12,0,1,1,44,34,12.013,12.013,0,0,1,32,46Zm18.824-7.387c-.067.163-.157.387-.794.387A1.168,1.168,0,0,1,49,38c0-1.11-.556-2.545-3.032-3.377.01-.208.032-.413.032-.623a14.027,14.027,0,0,0-.1-1.6c3.723.845,5.1,2.862,5.1,4.6A4.62,4.62,0,0,1,50.824,38.613Z"/><path d="M30.293,41.293,31.7,42.711a5.155,5.155,0,0,1,5.849-.816l.894-1.79A7.165,7.165,0,0,0,30.293,41.293Z"/></g></svg>
