<?xml version="1.0" encoding="iso-8859-1"?>
<!-- Generator: Adobe Illustrator 19.0.0, SVG Export Plug-In . SVG Version: 6.00 Build 0)  -->
<svg version="1.1" id="Capa_1" xmlns="http://www.w3.org/2000/svg" xmlns:xlink="http://www.w3.org/1999/xlink" x="0px" y="0px"
	 viewBox="0 0 504 504" style="enable-background:new 0 0 504 504;" xml:space="preserve">
<g transform="translate(-1)">
	<g transform="translate(3 2)">
		<g>
			<path style="fill:#AD1457;" d="M409.476,384.485c0,0,21.72,73.552-8.805,103.01c-4.489,4.076-10.377,6.263-16.439,6.104h-67.084
				c0,0-25.18,0-16.787-58.754H199.64c8.393,58.754-16.787,58.754-16.787,58.754h-67.084c-6.061,0.158-11.95-2.028-16.439-6.104
				c-30.525-29.458-8.805-103.01-8.805-103.01H409.476z"/>
			<path style="fill:#AD1457;" d="M90.525,266.977c-33.949,19.561-71.921,51.553-75.389,93.868
				c-0.773,9.431,1.254,23.448,9.721,29.263c7.167,3.749,15.663,3.983,23.025,0.635c16.64-6.143,29.602-19.89,42.644-31.438V266.977
				z"/>
			<path style="fill:#AD1457;" d="M409.476,266.977c33.949,19.561,71.921,51.553,75.389,93.868
				c0.773,9.431-1.254,23.448-9.721,29.263c-7.167,3.749-15.663,3.983-23.025,0.635c-16.64-6.143-29.602-19.89-42.644-31.438
				V266.977z"/>
			<path style="fill:#AD1457;" d="M141.809,208.642c-33.988,3.789-59.692,32.529-59.677,66.728v75.541
				c0.017,46.349,37.586,83.918,83.934,83.934h167.869c46.349-0.017,83.918-37.586,83.934-83.934V275.37
				c0.014-34.199-25.689-62.939-59.677-66.728l-63.035-0.42h-90.313L141.809,208.642z"/>
		</g>
		<path style="fill:#E91E63;" d="M158.037,233.729c-27.717,1.729-49.631,24.15-50.726,51.899v58.754
			c0,36.036,31.962,65.282,71.344,65.282h142.689c39.382,0,71.344-29.246,71.344-65.282v-58.754
			c-1.094-27.75-23.008-50.171-50.726-51.899l-53.58-0.326h-76.766L158.037,233.729z"/>
		<path style="fill:#AD1457;" d="M211.953,219.789c-20.988-28.321-20.127-66.508-16.762-90.213l-52.459,9.82
			c6.557,27.496,4.712,56.326-5.296,82.762c-0.95,2.571-0.578,5.444,0.995,7.689c1.573,2.244,4.148,3.573,6.889,3.557h60.079
			c3.21-0.025,6.126-1.873,7.518-4.765C214.31,225.746,213.936,222.313,211.953,219.789z"/>
		<circle style="fill:#9D27B0;" cx="157.672" cy="73.927" r="67.148"/>
		<circle style="fill:#FFFFFF;" cx="157.672" cy="73.927" r="33.574"/>
		<path style="fill:#AD1457;" d="M288.048,219.789c20.988-28.321,20.127-66.508,16.762-90.213l52.459,9.82
			c-6.557,27.496-4.712,56.326,5.297,82.762c0.95,2.571,0.578,5.444-0.995,7.689c-1.574,2.244-4.148,3.573-6.889,3.556h-60.079
			c-3.21-0.025-6.126-1.873-7.518-4.765C285.691,225.746,286.065,222.313,288.048,219.789z"/>
		<circle style="fill:#9D27B0;" cx="342.328" cy="73.927" r="67.148"/>
		<circle style="fill:#FFFFFF;" cx="342.328" cy="73.927" r="33.574"/>
		<g>
			<path style="fill:#2C2F38;" d="M157.672,82.321c-3.394-0.013-6.449-2.061-7.75-5.196c-1.301-3.134-0.596-6.744,1.791-9.157
				c0.802-0.76,1.743-1.36,2.771-1.766c1.501-0.663,3.173-0.838,4.779-0.5c0.557,0.077,1.097,0.246,1.598,0.5
				c0.534,0.184,1.041,0.439,1.508,0.758c0.418,0.336,0.844,0.672,1.262,1.008c3.246,3.31,3.246,8.608,0,11.918
				c-0.399,0.361-0.821,0.696-1.262,1.004c-0.467,0.319-0.974,0.574-1.508,0.758c-0.502,0.253-1.042,0.424-1.598,0.504
				C158.738,82.249,158.206,82.305,157.672,82.321z"/>
			<path style="fill:#2C2F38;" d="M342.328,82.321c-2.222-0.033-4.35-0.902-5.959-2.434c-0.776-0.789-1.377-1.733-1.763-2.771
				c-0.43-1.009-0.658-2.092-0.671-3.189c0.014-2.226,0.886-4.361,2.434-5.959c2.401-2.421,6.029-3.149,9.178-1.841
				c3.149,1.308,5.195,4.391,5.175,7.801c-0.013,1.097-0.242,2.18-0.672,3.188c-0.386,1.037-0.987,1.981-1.763,2.771
				C346.677,81.417,344.55,82.286,342.328,82.321z"/>
		</g>
		<path style="fill:#37474F;" d="M375.902,300.55v50.361h-33.574c-9.065,0.028-16.483,7.223-16.787,16.283
			c-0.304-9.06-7.722-16.255-16.787-16.283h-16.787c-8.941,0.018-16.31,7.019-16.787,15.948
			c-0.477-8.928-7.846-15.929-16.787-15.948h-16.787c-8.941,0.018-16.31,7.019-16.787,15.948
			c-0.477-8.928-7.846-15.929-16.787-15.948h-16.787c-9.26,0.027-16.76,7.527-16.787,16.787c-0.027-9.26-7.527-16.76-16.787-16.787
			h-33.574V300.55h33.574c9.065-0.028,16.483-7.223,16.787-16.283c0.304,9.06,7.722,16.255,16.787,16.283h16.787
			c9.26-0.027,16.76-7.527,16.787-16.787c0.027,9.26,7.527,16.76,16.787,16.787h16.787c9.26-0.027,16.76-7.527,16.787-16.787
			c0.027,9.26,7.527,16.76,16.787,16.787h16.787c9.26-0.027,16.76-7.527,16.787-16.787c0.027,9.26,7.527,16.76,16.787,16.787
			H375.902z"/>
		<g>
			<path style="fill:#FFFFFF;" d="M375.902,292.157l0,8.393h-33.574c-9.26-0.027-16.76-7.527-16.787-16.787v-16.787l25.18,0
				c6.681-0.009,13.091,2.641,17.815,7.365C373.261,279.066,375.911,285.476,375.902,292.157z"/>
			<path style="fill:#FFFFFF;" d="M174.459,367.698v16.787l-25.18,0c-6.681,0.009-13.091-2.641-17.815-7.365
				c-4.724-4.724-7.374-11.134-7.365-17.815l0-8.393h33.574C166.932,350.938,174.432,358.438,174.459,367.698z"/>
			<path style="fill:#FFFFFF;" d="M174.459,266.977v17.29c-0.304,9.06-7.722,16.255-16.787,16.283h-33.574l0-8.393
				c-0.009-6.681,2.641-13.091,7.365-17.815c4.724-4.724,11.134-7.374,17.815-7.365L174.459,266.977z"/>
			<path style="fill:#FFFFFF;" d="M224.82,266.977v16.787c-0.027,9.26-7.527,16.76-16.787,16.787h-16.787
				c-9.065-0.028-16.483-7.223-16.787-16.283v-17.29H224.82z"/>
			<path style="fill:#FFFFFF;" d="M325.541,266.977v16.787c-0.027,9.26-7.527,16.76-16.787,16.787h-16.787
				c-9.26-0.027-16.76-7.527-16.787-16.787v-16.787H325.541z"/>
			<path style="fill:#FFFFFF;" d="M275.181,266.977v16.787c-0.027,9.26-7.527,16.76-16.787,16.787h-16.787
				c-9.26-0.027-16.76-7.527-16.787-16.787v-16.787H275.181z"/>
			<path style="fill:#FFFFFF;" d="M224.82,366.859v17.626h-50.361v-16.787c0.027-9.26,7.527-16.76,16.787-16.787h16.787
				C216.974,350.929,224.343,357.93,224.82,366.859z"/>
			<path style="fill:#FFFFFF;" d="M375.902,350.911l0,8.393c0.009,6.681-2.641,13.091-7.365,17.815
				c-4.724,4.724-11.134,7.374-17.815,7.365l-25.18,0v-17.29c0.304-9.06,7.722-16.255,16.787-16.283H375.902z"/>
			<path style="fill:#FFFFFF;" d="M325.541,367.194v17.29h-50.361v-17.626c0.477-8.928,7.846-15.929,16.787-15.948h16.787
				C317.819,350.939,325.237,358.134,325.541,367.194z"/>
			<path style="fill:#FFFFFF;" d="M275.181,366.859v17.626H224.82v-17.626c0.477-8.928,7.846-15.929,16.787-15.948h16.787
				C267.335,350.929,274.704,357.93,275.181,366.859z"/>
		</g>
	</g>
	<g>
		<path d="M427.975,263.431c-5.67-30.447-29.397-54.322-59.809-60.179c-4.154-18.105-4.407-36.888-0.74-55.098
			c33.517-10.15,55.696-41.965,53.626-76.923S393.204,7.297,358.724,1.172s-68.66,12.201-82.642,44.309s-4.115,69.614,23.856,90.686
			c3.321,22.137,0.861,44.756-7.139,65.662h-79.596c-8.001-20.906-10.46-43.525-7.139-65.662
			c27.816-21.032,37.591-58.39,23.639-90.351S181.71-4.375,147.374,1.723S87.359,36.661,85.267,71.471s19.949,66.517,53.307,76.683
			c3.667,18.21,3.415,36.992-0.739,55.097c-30.412,5.857-54.14,29.732-59.809,60.18c-28.22,16.755-72.695,50.519-76.657,98.729
			c-0.984,12.103,1.91,29.021,13.336,36.865c4.583,3.031,9.983,4.587,15.475,4.459c5.198-0.081,10.343-1.051,15.213-2.869
			c12.968-5.486,24.751-13.432,34.698-23.4c1.403,5.127,3.25,10.122,5.519,14.928l-0.045,0.078
			c-0.959,2.869-23.008,70.557,10.934,103.316c6.045,5.602,14.031,8.634,22.27,8.455h67.082c6.483-0.409,12.496-3.522,16.574-8.578
			c8.588-9.899,11.808-26.767,9.643-50.176h81.861c-2.165,23.409,1.055,40.277,9.643,50.176c4.078,5.056,10.091,8.169,16.574,8.578
			h67.082c8.239,0.179,16.226-2.853,22.27-8.455c33.943-32.758,11.894-100.447,10.934-103.316l-0.045-0.079
			c2.27-4.806,4.117-9.801,5.519-14.927c9.946,9.967,21.729,17.914,34.698,23.4c4.87,1.818,10.015,2.788,15.213,2.869
			c5.492,0.126,10.892-1.43,15.475-4.459c11.426-7.844,14.319-24.762,13.336-36.869C500.67,313.95,456.195,280.186,427.975,263.431z
			 M286.574,75.927c0-32.449,26.305-58.754,58.754-58.754s58.754,26.305,58.754,58.754s-26.305,58.754-58.754,58.754
			C312.895,134.644,286.612,108.361,286.574,75.927z M101.918,75.927c0-32.449,26.305-58.754,58.754-58.754
			s58.754,26.305,58.754,58.754s-26.305,58.754-58.754,58.754C128.239,134.644,101.956,108.361,101.918,75.927z M93.525,277.37
			c-0.031-24.689,15.413-46.749,38.621-55.169c-1.17,3.121-2.507,6.176-4.007,9.153c-1.447,2.627-1.382,5.826,0.17,8.392
			c1.552,2.566,4.354,4.11,7.353,4.049c2.998-0.061,5.736-1.716,7.183-4.343c4.246-8.351,7.569-17.14,9.909-26.211
			c0.055-0.166,0.088-0.329,0.132-0.499c5.402-20.04,6.546-40.989,3.36-61.497c1.473,0.086,2.933,0.224,4.427,0.224
			c9.468-0.011,18.848-1.813,27.645-5.311c-1.955,23.083,2.107,46.279,11.791,67.324l0.01,0.021
			c5.398,10.897,13.003,20.551,22.332,28.352c3.563,2.965,8.855,2.481,11.82-1.082c2.965-3.563,2.481-8.855-1.082-11.82
			c-3.701-3.087-7.07-6.551-10.054-10.336h59.731c-2.984,3.785-6.353,7.249-10.054,10.336c-3.563,2.965-4.047,8.257-1.082,11.82
			c2.965,3.563,8.257,4.047,11.82,1.082c9.329-7.8,16.934-17.455,22.332-28.351l0.011-0.022c9.684-21.045,13.746-44.24,11.79-67.323
			c8.798,3.499,18.178,5.301,27.645,5.311c1.495,0,2.954-0.138,4.428-0.224c-3.187,20.509-2.042,41.458,3.36,61.497
			c0.044,0.17,0.077,0.334,0.132,0.499c2.34,9.071,5.663,17.86,9.909,26.211c2.243,4.04,7.329,5.508,11.38,3.283
			c4.05-2.225,5.54-7.305,3.334-11.365c-1.502-2.982-2.842-6.042-4.014-9.168c23.208,8.42,38.652,30.48,38.621,55.168v75.541
			c-0.047,41.701-33.84,75.494-75.541,75.541H169.066c-41.701-0.047-75.494-33.84-75.541-75.541V277.37z M72.746,361.198
			c-9.469,9.908-20.724,17.939-33.172,23.672c-4.831,2.333-10.437,2.45-15.361,0.32c-5.126-5.967-7.36-13.89-6.107-21.656
			c2.936-35.777,33.946-63.141,58.631-79.481v68.858c0,1.508,0.155,2.976,0.227,4.467C75.561,358.648,74.161,359.905,72.746,361.198
			z M190.23,483.821c-1.078,1.553-2.61,2.736-4.385,3.385h-67.074c-3.886,0.142-7.68-1.199-10.615-3.75
			c-18.426-17.783-14.426-52.409-10.294-71.835c17.514,21.289,43.637,33.622,71.204,33.617h26.086
			C197.631,469.574,193.29,479.859,190.23,483.821z M397.845,483.456c-2.935,2.551-6.729,3.892-10.615,3.75h-67.082
			c-1.525-0.561-2.871-1.524-3.893-2.787c-3.293-3.797-7.979-13.972-5.401-39.181h26.081c27.599,0.005,53.747-12.357,71.26-33.688
			C412.737,433.122,415.206,466.701,397.845,483.456z M481.787,385.19c-4.924,2.125-10.529,2.009-15.361-0.32
			c-12.448-5.733-23.703-13.764-33.172-23.672c-1.414-1.293-2.815-2.55-4.218-3.82c0.072-1.49,0.226-2.959,0.226-4.467v-68.858
			c24.685,16.339,55.695,43.703,58.631,79.477C489.148,371.297,486.914,379.222,481.787,385.19L481.787,385.19z"/>
		<path d="M202.64,75.927c0-23.178-18.789-41.967-41.967-41.967s-41.967,18.789-41.967,41.967s18.789,41.967,41.967,41.967
			C183.839,117.867,202.612,99.094,202.64,75.927z M135.492,75.927c0-13.907,11.274-25.18,25.18-25.18
			c13.907,0,25.18,11.274,25.18,25.18s-11.274,25.18-25.18,25.18C146.772,101.093,135.507,89.828,135.492,75.927z"/>
		<path d="M345.328,117.895c23.178,0,41.967-18.789,41.967-41.967S368.506,33.96,345.328,33.96s-41.967,18.789-41.967,41.967
			C303.388,99.094,322.162,117.867,345.328,117.895z M345.328,50.747c13.907,0,25.18,11.274,25.18,25.18s-11.274,25.18-25.18,25.18
			s-25.18-11.274-25.18-25.18C320.163,62.027,331.428,50.762,345.328,50.747z"/>
		<path d="M162.263,84.153c0.557-0.081,1.096-0.251,1.598-0.504c0.534-0.184,1.041-0.439,1.508-0.758
			c0.441-0.308,0.863-0.643,1.263-1.004c3.246-3.31,3.246-8.608,0-11.918c-0.418-0.336-0.844-0.672-1.262-1.008
			c-0.467-0.319-0.974-0.574-1.508-0.758c-0.502-0.254-1.042-0.423-1.599-0.5c-1.606-0.338-3.278-0.163-4.779,0.5
			c-1.028,0.406-1.969,1.006-2.771,1.766c-2.421,2.401-3.149,6.029-1.841,9.178c1.308,3.149,4.391,5.195,7.801,5.175
			C161.206,84.305,161.738,84.249,162.263,84.153z"/>
		<path d="M339.369,81.887c3.31,3.246,8.608,3.246,11.918,0c0.776-0.789,1.377-1.733,1.763-2.771
			c0.43-1.009,0.659-2.092,0.672-3.189c0.02-3.41-2.025-6.493-5.175-7.801c-3.149-1.308-6.777-0.58-9.178,1.841
			c-1.549,1.599-2.42,3.734-2.434,5.959c0.013,1.097,0.242,2.18,0.672,3.188C337.993,80.153,338.593,81.097,339.369,81.887z"/>
		<path d="M152.279,394.878h201.443c18.534-0.02,33.554-15.04,33.574-33.574v-67.148c-0.02-18.534-15.04-33.554-33.574-33.574
			H152.279c-18.534,0.02-33.554,15.04-33.574,33.574v67.148C118.725,379.839,133.745,394.858,152.279,394.878z M320.148,285.763
			c-0.005,4.634-3.76,8.389-8.393,8.393h-16.787c-4.634-0.005-8.389-3.76-8.393-8.393v-8.393h33.574V285.763z M269.787,285.763
			c-0.005,4.634-3.76,8.389-8.393,8.393h-16.787c-4.634-0.005-8.389-3.76-8.393-8.393v-8.393h33.574V285.763z M219.426,285.763
			c-0.005,4.634-3.76,8.389-8.393,8.393h-16.787c-4.634-0.005-8.389-3.76-8.393-8.393v-8.393h33.574V285.763z M177.459,304.395
			c4.586,4.195,10.572,6.53,16.787,6.549h16.787c6.215-0.019,12.2-2.354,16.787-6.549c4.586,4.195,10.572,6.53,16.787,6.549h16.787
			c6.215-0.019,12.201-2.354,16.787-6.549c4.586,4.195,10.572,6.53,16.787,6.549h16.787c6.215-0.019,12.201-2.354,16.787-6.549
			c4.586,4.195,10.572,6.53,16.787,6.549h25.18v33.574h-25.18c-6.215,0.019-12.201,2.354-16.787,6.549
			c-4.586-4.195-10.571-6.53-16.787-6.549h-16.787c-6.215,0.019-12.201,2.354-16.787,6.549c-4.586-4.195-10.571-6.53-16.787-6.549
			h-16.787c-6.215,0.019-12.2,2.354-16.787,6.549c-4.586-4.195-10.571-6.53-16.787-6.549h-16.787
			c-6.215,0.019-12.2,2.354-16.787,6.549c-4.586-4.195-10.571-6.53-16.787-6.549h-25.18v-33.574h25.18
			C166.888,310.924,172.873,308.589,177.459,304.395z M185.853,369.698c0.005-4.634,3.76-8.389,8.393-8.393h16.787
			c4.634,0.005,8.389,3.76,8.393,8.393v8.393h-33.574V369.698z M236.213,369.698c0.005-4.634,3.76-8.389,8.393-8.393h16.787
			c4.634,0.005,8.389,3.76,8.393,8.393v8.393h-33.574V369.698z M286.574,369.698c0.005-4.634,3.76-8.389,8.393-8.393h16.787
			c4.634,0.005,8.389,3.76,8.393,8.393v8.393h-33.574V369.698z M135.492,361.304h25.18c4.634,0.005,8.389,3.76,8.393,8.393v8.393
			h-16.787C143.012,378.081,135.503,370.571,135.492,361.304z M353.722,378.091h-16.787v-8.393c0.005-4.634,3.76-8.389,8.393-8.393
			h25.18C370.498,370.571,362.988,378.081,353.722,378.091z M370.508,294.157h-25.18c-4.634-0.005-8.389-3.76-8.393-8.393v-8.393
			h16.787C362.988,277.381,370.498,284.89,370.508,294.157z M152.279,277.37h16.787v8.393c-0.005,4.634-3.76,8.389-8.393,8.393
			h-25.18C135.503,284.89,143.012,277.381,152.279,277.37z"/>
	</g>
</g>
<g>
</g>
<g>
</g>
<g>
</g>
<g>
</g>
<g>
</g>
<g>
</g>
<g>
</g>
<g>
</g>
<g>
</g>
<g>
</g>
<g>
</g>
<g>
</g>
<g>
</g>
<g>
</g>
<g>
</g>
</svg>
