<?xml version="1.0"?>
<svg xmlns="http://www.w3.org/2000/svg" viewBox="0 0 64 64" width="512" height="512"><g id="Filled_outline" data-name="Filled outline"><rect x="19" y="51" width="10" height="10" style="fill:#f98c96"/><rect x="35" y="51" width="10" height="10" style="fill:#f98c96"/><rect x="23" y="58" width="2" height="3" style="fill:#e4544f"/><rect x="39" y="58" width="2" height="3" style="fill:#e4544f"/><path d="M19,32C5,32,0,19.562,5,22c3.241,1.58,14,0,14,0Z" style="fill:#f98c96"/><path d="M19,45.317c-14,0-19-12.438-14-10,3.241,1.58,14,0,14,0Z" style="fill:#f98c96"/><path d="M45,32c14,0,19-12.437,14-10-3.241,1.58-14,0-14,0Z" style="fill:#f98c96"/><path d="M45,45.317c14,0,19-12.438,14-10-3.241,1.58-14,0-14,0Z" style="fill:#f98c96"/><path d="M48,29V27c.035,0,3.616-.029,5.294-1.707l1.414,1.414C52.44,28.974,48.181,29,48,29Z" style="fill:#e4544f"/><path d="M16,29c-.181,0-4.44-.026-6.707-2.293l1.414-1.414C12.107,26.693,15,27,16,27Z" style="fill:#e4544f"/><path d="M16,42a5.306,5.306,0,0,1-3.707-1.293l1.4-1.426A3.46,3.46,0,0,0,16,40Z" style="fill:#e4544f"/><path d="M48,42V40a3.46,3.46,0,0,0,2.3-.719l1.4,1.426A5.306,5.306,0,0,1,48,42Z" style="fill:#e4544f"/><rect x="30" y="3" width="4" height="6" style="fill:#394d5c"/><rect x="21.379" y="4.257" width="4.243" height="8.485" transform="translate(0.873 19.107) rotate(-45)" style="fill:#394d5c"/><rect x="36.257" y="6.379" width="8.485" height="4.243" transform="translate(5.852 31.127) rotate(-45)" style="fill:#394d5c"/><path d="M35,8H29A11.013,11.013,0,0,0,18,19V52H46V19A11.013,11.013,0,0,0,35,8Z" style="fill:#e4544f"/><path d="M24,40H41S33,31,24,40Z" style="fill:#ffd782"/><rect x="22" y="46" width="2" height="2" style="fill:#f98c96"/><rect x="26" y="46" width="2" height="2" style="fill:#f98c96"/><circle cx="32" cy="23" r="6" style="fill:#fcf05a"/><circle cx="32" cy="23" r="2" style="fill:#e4544f"/><path d="M32.347,33.552c-5.121,0-9-3.787-9.054-3.845l1.413-1.415c.3.3,7.4,7.185,14.587,0l1.414,1.414C37.823,32.591,34.927,33.552,32.347,33.552Z" style="fill:#fff"/><path d="M16,40a3.46,3.46,0,0,1-2.3-.719l-1.4,1.426A5.306,5.306,0,0,0,16,42Z"/><path d="M50.305,39.281A3.46,3.46,0,0,1,48,40v2a5.306,5.306,0,0,0,3.707-1.293Z"/><path d="M61.574,24.037c.668-1.709.129-2.554-.252-2.9-.445-.411-1.284-.751-2.76-.031-2.223,1.082-9.169.465-12.562.025V19a10.9,10.9,0,0,0-3.526-8.06L46.414,7,42,2.586,36.474,8.111A11.054,11.054,0,0,0,35,8V2H29V8a11.044,11.044,0,0,0-1.475.111L22,2.586,17.586,7l3.94,3.94A10.9,10.9,0,0,0,18,19v2.127c-3.393.44-10.339,1.057-12.562-.025-1.475-.721-2.316-.381-2.76.031-.381.35-.92,1.2-.252,2.9,1.3,3.341,6.657,8.556,15.574,8.927v1.48c-3.393.439-10.339,1.056-12.562-.026-1.475-.721-2.316-.38-2.76.031-.381.351-.92,1.2-.252,2.905,1.3,3.34,6.657,8.555,15.574,8.926V61a1,1,0,0,0,1,1H29a1,1,0,0,0,1-1V52h4v9a1,1,0,0,0,1,1H45a1,1,0,0,0,1-1V46.28c8.917-.371,14.269-5.586,15.574-8.926.668-1.709.129-2.554-.252-2.905-.445-.41-1.284-.751-2.76-.031-2.223,1.082-9.169.465-12.562.026v-1.48C54.917,32.593,60.269,27.378,61.574,24.037ZM46,23.145c3,.379,10.56,1.159,13.438-.247a2.859,2.859,0,0,1,.444-.176,5.63,5.63,0,0,1-1.177,2.293c-2.1,2.748-6.5,5.674-12.7,5.962ZM18,44.293c-6.2-.287-10.6-3.214-12.7-5.962a5.624,5.624,0,0,1-1.177-2.293,2.785,2.785,0,0,1,.444.177c2.88,1.4,10.442.626,13.438.246Zm0-13.316c-6.2-.288-10.6-3.214-12.7-5.962a5.63,5.63,0,0,1-1.177-2.293,2.859,2.859,0,0,1,.444.176C7.442,24.305,15,23.524,18,23.145ZM42,5.414,43.586,7l-2.7,2.7a11.073,11.073,0,0,0-2.127-1.045ZM31,4h2V8H31ZM20.414,7,22,5.414l3.259,3.259A10.966,10.966,0,0,0,23.13,9.716ZM28,60H25V58H23v2H20V52h8Zm16,0H41V58H39v2H36V52h8Zm0-10H20V19a9.007,9.007,0,0,1,9-9h6a9.011,9.011,0,0,1,1.646.153h.006A8.934,8.934,0,0,1,40.4,11.8h0A8.947,8.947,0,0,1,44,19ZM59.438,36.215a2.785,2.785,0,0,1,.444-.177,5.624,5.624,0,0,1-1.177,2.293c-2.1,2.748-6.5,5.675-12.7,5.962V36.461C49,36.841,56.56,37.619,59.438,36.215Z"/><path d="M48,27v2c.181,0,4.44-.026,6.707-2.293l-1.414-1.414C51.615,26.971,48.034,27,48,27Z"/><path d="M16,29V27c-1,0-3.893-.307-5.293-1.707L9.293,26.707C11.56,28.974,15.819,29,16,29Z"/><path d="M23.293,39.293A1,1,0,0,0,24,41H41a1,1,0,0,0,.747-1.664c-.151-.171-3.771-4.177-9.03-4.331C29.414,34.9,26.235,36.351,23.293,39.293ZM26.7,39a9.645,9.645,0,0,1,5.943-2,10.618,10.618,0,0,1,5.637,2Z"/><rect x="22" y="46" width="2" height="2"/><rect x="26" y="46" width="2" height="2"/><path d="M32,30a7,7,0,1,0-7-7A7.009,7.009,0,0,0,32,30Zm0-12a5,5,0,1,1-5,5A5.006,5.006,0,0,1,32,18Z"/><path d="M32,26a3,3,0,1,0-3-3A3,3,0,0,0,32,26Zm0-4a1,1,0,1,1-1,1A1,1,0,0,1,32,22Z"/><path d="M40.707,29.707l-1.414-1.414c-7.182,7.184-14.287.3-14.587,0l-1.413,1.415c.058.058,3.933,3.845,9.054,3.845C34.927,33.552,37.823,32.591,40.707,29.707Z"/></g></svg>
