<svg height="463pt" viewBox="-40 0 463 463.98651" width="463pt" xmlns="http://www.w3.org/2000/svg"><path d="m336.492188 463.988281h-288l-16-312h320zm0 0" fill="#dd3e46"/><path d="m96.492188 151.988281h64v312h-64zm0 0" fill="#f4f4e6"/><path d="m224.492188 151.988281h64v312h-64zm0 0" fill="#f4f4e6"/><path d="m96.492188 463.988281h-48l-16-312h64zm0 0" fill="#dd3e46"/><path d="m160.492188 151.988281h64v312h-64zm0 0" fill="#dd3e46"/><path d="m336.492188 463.988281h-48v-312h64zm0 0" fill="#dd3e46"/><path d="m40.492188 79.988281c5.894531.046875 11.777343.53125 17.601562 1.453125-1.011719-3.050781-1.550781-6.238281-1.601562-9.453125-.132813-10.035156 4.507812-19.539062 12.507812-25.597656 8-6.0625 18.40625-7.957031 28.027344-5.109375-2.011719-10.335938 1.953125-20.929688 10.265625-27.402344s19.554687-7.71875 29.085937-3.230468c9.527344 4.488281 15.722656 13.953124 16.027344 24.480468 8.472656-10.109375 22.394531-13.789062 34.757812-9.183594 6.765626-18.097656 25.523438-28.753906 44.535157-25.304687 19.011719 3.453125 32.824219 20.023437 32.792969 39.347656 0 .175781-.046876.335938-.046876.503907 6.570313-6.789063 16.125-9.796876 25.398438-7.992188 9.273438 1.800781 17.007812 8.171875 20.554688 16.925781 11.980468-3.328125 24.828124-.824219 34.683593 6.761719s15.5625 19.363281 15.410157 31.800781c0 .375-.101563.726563-.109376 1.09375 15.644532 3.941407 25.890626 18.933594 23.882813 34.941407-2.007813 16.007812-15.636719 28.007812-31.773437 27.964843h-312c-19.878907 0-40-16.121093-40-36 0-19.882812 20.121093-36 40-36zm0 0" fill="#ffd782"/><g fill="#e1462b"><path d="m184.492188 79.988281h-8c-4.417969 0-8-3.582031-8-8 0-4.421875 3.582031-8 8-8h8c4.417968 0 8 3.578125 8 8 0 4.417969-3.582032 8-8 8zm0 0"/><path d="m232.492188 103.988281h-8c-4.417969 0-8-3.582031-8-8 0-4.421875 3.582031-8 8-8h8c4.417968 0 8 3.578125 8 8 0 4.417969-3.582032 8-8 8zm0 0"/><path d="m96.492188 111.988281h-8c-4.417969 0-8-3.582031-8-8 0-4.421875 3.582031-8 8-8h8c4.417968 0 8 3.578125 8 8 0 4.417969-3.582032 8-8 8zm0 0"/><path d="m160.492188 119.988281h-8c-4.417969 0-8-3.582031-8-8 0-4.421875 3.582031-8 8-8h8c4.417968 0 8 3.578125 8 8 0 4.417969-3.582032 8-8 8zm0 0"/><path d="m288.492188 119.988281h-8c-4.417969 0-8-3.582031-8-8 0-4.421875 3.582031-8 8-8h8c4.417968 0 8 3.578125 8 8 0 4.417969-3.582032 8-8 8zm0 0"/></g><path d="m256.492188 287.988281c0 35.34375-28.652344 64-64 64-35.34375 0-64-28.65625-64-64 0-35.347656 28.65625-64 64-64 35.347656 0 64 28.652344 64 64zm0 0" fill="#ffd782"/></svg>