<?xml version="1.0" encoding="iso-8859-1"?>
<!-- Generator: Adobe Illustrator 19.0.0, SVG Export Plug-In . SVG Version: 6.00 Build 0)  -->
<svg xmlns="http://www.w3.org/2000/svg" xmlns:xlink="http://www.w3.org/1999/xlink" version="1.1" id="Layer_1" x="0px" y="0px" viewBox="0 0 512 512" style="enable-background:new 0 0 512 512;" xml:space="preserve" width="512" height="512">
<g id="XMLID_1686_">
	<path id="XMLID_1735_" style="fill:#FFB954;" d="M176,30H96c-17.673,0-32,14.327-32,32v408c0,17.673,14.327,32,32,32h320   c17.673,0,32-14.327,32-32V62c0-17.673-14.327-32-32-32h-80"/>
	<polygon id="XMLID_1734_" style="fill:#FFFFFF;" points="340.25,30 408.127,30 408.127,462 104.127,462 104.127,30 174.5,30  "/>
	<g id="XMLID_99_">
		<path id="XMLID_119_" d="M416,20h-7.873h-62.833C342.577,8.548,332.271,0,320,0H192c-12.271,0-22.577,8.548-25.293,20h-62.58H96    c-23.159,0-42,18.841-42,42v408c0,23.159,18.841,42,42,42h320c23.159,0,42-18.841,42-42V250c0-5.523-4.478-10-10-10    s-10,4.477-10,10v220c0,12.131-9.869,22-22,22H96c-12.131,0-22-9.869-22-22V62c0-11.499,8.87-20.96,20.127-21.915V462    c0,5.523,4.478,10,10,10h304c5.522,0,10-4.477,10-10V40.105C429.263,41.178,438,50.587,438,62v108c0,5.523,4.478,10,10,10    s10-4.477,10-10V62C458,38.841,439.159,20,416,20z M186,26c0-3.309,2.691-6,6-6h128c3.309,0,6,2.691,6,6v48c0,3.309-2.691,6-6,6    H192c-3.309,0-6-2.691-6-6V26z M398.127,452h-284V40H166v34c0,14.336,11.663,26,26,26h128c14.337,0,26-11.664,26-26V40h52.127V452    z"/>
		<path id="XMLID_121_" d="M448,200c-2.63,0-5.21,1.07-7.07,2.93c-1.86,1.86-2.93,4.44-2.93,7.07c0,2.63,1.069,5.21,2.93,7.07    S445.37,220,448,220s5.21-1.07,7.069-2.93c1.86-1.86,2.931-4.44,2.931-7.07c0-2.63-1.07-5.21-2.931-7.07    C453.21,201.07,450.63,200,448,200z"/>
		<path id="XMLID_122_" d="M184.127,200h-30v-30c0-5.523-4.478-10-10-10s-10,4.477-10,10v40c0,5.523,4.478,10,10,10h40    c5.522,0,10-4.477,10-10S189.649,200,184.127,200z"/>
		<path id="XMLID_123_" d="M239,200c-5.522,0-10,4.477-10,10s4.478,10,10,10h129.127c5.522,0,10-4.477,10-10s-4.478-10-10-10H239z"/>
		<path id="XMLID_124_" d="M239,180h60c5.522,0,10-4.477,10-10s-4.478-10-10-10h-60c-5.522,0-10,4.477-10,10S233.478,180,239,180z"/>
		<path id="XMLID_125_" d="M184.127,296h-30v-30c0-5.523-4.478-10-10-10s-10,4.477-10,10v40c0,5.523,4.478,10,10,10h40    c5.522,0,10-4.477,10-10S189.649,296,184.127,296z"/>
		<path id="XMLID_126_" d="M368.127,296H239c-5.522,0-10,4.477-10,10s4.478,10,10,10h129.127c5.522,0,10-4.477,10-10    S373.649,296,368.127,296z"/>
		<path id="XMLID_127_" d="M239,276h60c5.522,0,10-4.477,10-10s-4.478-10-10-10h-60c-5.522,0-10,4.477-10,10S233.478,276,239,276z"/>
		<path id="XMLID_128_" d="M184.127,392h-30v-30c0-5.523-4.478-10-10-10s-10,4.477-10,10v40c0,5.523,4.478,10,10,10h40    c5.522,0,10-4.477,10-10S189.649,392,184.127,392z"/>
		<path id="XMLID_129_" d="M239,392c-2.63,0-5.21,1.07-7.07,2.93c-1.86,1.86-2.93,4.44-2.93,7.07c0,2.63,1.069,5.21,2.93,7.07    S236.37,412,239,412s5.21-1.07,7.069-2.93c1.86-1.86,2.931-4.44,2.931-7.07c0-2.63-1.07-5.21-2.931-7.07    C244.21,393.07,241.63,392,239,392z"/>
		<path id="XMLID_130_" d="M368.127,392H279c-5.522,0-10,4.477-10,10s4.478,10,10,10h89.127c5.522,0,10-4.477,10-10    S373.649,392,368.127,392z"/>
		<path id="XMLID_131_" d="M299,372c5.522,0,10-4.477,10-10s-4.478-10-10-10h-60c-5.522,0-10,4.477-10,10s4.478,10,10,10H299z"/>
	</g>
</g>















</svg>
