<svg height="436pt" viewBox="0 -101 436.90752 436" width="436pt" xmlns="http://www.w3.org/2000/svg"><path d="m218.457031 7.285156c-90.449219 0-169.367187 44.261719-211.628906 109.984375 42.261719 65.730469 121.175781 109.976563 211.628906 109.976563 90.445313 0 169.359375-44.25 211.625-109.976563-42.265625-65.726562-121.183593-109.984375-211.625-109.984375" fill="#fff"/><path d="m218.457031 7.285156v-6.820312c-92.6875.011718-173.753906 45.316406-217.371093 113.105468-1.449219 2.25-1.449219 5.132813 0 7.390626 43.617187 67.792968 124.683593 113.097656 217.371093 113.105468 92.683594-.007812 173.746094-45.316406 217.367188-113.105468 1.445312-2.257813 1.445312-5.140626 0-7.390626-43.621094-67.789062-124.683594-113.097656-217.367188-113.105468v13.648437c88.214844-.011719 164.972657 43.191407 205.878907 106.847657l5.742187-3.691407-5.742187-3.699219c-40.910157 63.664063-117.664063 106.859376-205.878907 106.851563-88.222656.007813-164.976562-43.1875-205.886719-106.851563l-5.742187 3.699219 5.742187 3.691407c40.910157-63.660157 117.664063-106.859376 205.886719-106.847657z" fill="#54596e"/><path d="m138.863281 19.253906c-28.480469 23.164063-46.703125 58.449219-46.703125 98.015625 0 39.570313 18.222656 74.855469 46.703125 98.011719 24.953125 7.730469 51.710938 11.976562 79.59375 11.976562 27.875 0 54.636719-4.246093 79.589844-11.976562 28.476563-23.15625 46.703125-58.441406 46.703125-98.011719 0-39.566406-18.226562-74.851562-46.703125-98.015625-24.953125-7.730468-51.722656-11.96875-79.589844-11.96875-27.875 0-54.644531 4.238282-79.59375 11.96875" fill="#55a6ff"/><path d="m138.863281 19.253906-4.308593-5.292968c-29.992188 24.378906-49.222657 61.613281-49.222657 103.304687s19.230469 78.925781 49.222657 103.304687c.671874.542969 1.464843.972657 2.289062 1.226563 25.59375 7.9375 53.035156 12.277344 81.613281 12.277344 28.570313 0 56.011719-4.339844 81.609375-12.277344.820313-.253906 1.613282-.683594 2.285156-1.226563 29.996094-24.378906 49.222657-61.613281 49.222657-103.304687s-19.226563-78.925781-49.222657-103.304687c-.671874-.542969-1.464843-.972657-2.285156-1.234376-25.597656-7.933593-53.050781-12.273437-81.609375-12.273437-28.566406 0-56.019531 4.339844-81.613281 12.273437-.824219.257813-1.617188.6875-2.289062 1.234376l4.308593 5.292968 2.027344 6.515625c24.296875-7.53125 50.386719-11.660156 77.566406-11.667969 27.171875.007813 53.261719 4.136719 77.570313 11.667969l2.019531-6.515625-4.308594 5.292969c26.960938 21.9375 44.183594 55.277344 44.183594 92.722656 0 37.441407-17.222656 70.78125-44.183594 92.71875l4.308594 5.292969-2.019531-6.527344c-24.308594 7.542969-50.386719 11.667969-77.570313 11.679688-27.191406-.011719-53.269531-4.136719-77.570312-11.679688l-2.027344 6.527344 4.308594-5.292969c-26.960938-21.9375-44.179688-55.277343-44.179688-92.71875 0-37.445312 17.21875-70.785156 44.179688-92.722656l-4.304688-5.292969 2.027344 6.515625z" fill="#54596e"/><path d="m279.894531 113.855469c0 33.933593-27.507812 61.441406-61.441406 61.441406s-61.4375-27.507813-61.4375-61.441406c0-33.933594 27.503906-61.441407 61.4375-61.441407s61.441406 27.507813 61.441406 61.441407zm0 0" fill="#54596e"/><path d="m211.628906 86.546875c0 7.542969-6.113281 13.65625-13.65625 13.65625-7.539062 0-13.652344-6.113281-13.652344-13.65625 0-7.539063 6.113282-13.652344 13.652344-13.652344 7.542969 0 13.65625 6.113281 13.65625 13.652344zm0 0" fill="#fff"/><path d="m218.457031 14.101562c-26.710937.011719-52.363281 3.996094-76.304687 11.28125-7.070313 5.882813-13.449219 12.554688-19.003906 19.882813 27.53125-8.4375 60.230468-13.332031 95.308593-13.332031 35.074219 0 67.765625 4.894531 95.300781 13.332031-5.554687-7.332031-11.9375-14.003906-19.007812-19.886719-23.945312-7.28125-49.59375-11.265625-76.292969-11.277344" fill="#5597e2"/><path d="m218.457031 7.285156c-27.875 0-54.644531 4.238282-79.59375 11.972656-10.3125 8.402344-19.273437 18.402344-26.511719 29.597657 3.5-1.253907 7.105469-2.453125 10.796876-3.585938 5.554687-7.332031 11.933593-14.003906 19.003906-19.886719 23.941406-7.285156 49.59375-11.269531 76.304687-11.277343 26.699219.007812 52.347657 3.996093 76.292969 11.273437 7.070312 5.882813 13.453125 12.558594 19.007812 19.890625 3.699219 1.132813 7.300782 2.328125 10.808594 3.585938-7.25-11.195313-16.195312-21.195313-26.519531-29.597657-24.953125-7.734374-51.722656-11.972656-79.589844-11.972656" fill="#54596e"/><path d="m123.152344 189.269531c5.546875 7.320313 11.921875 13.988281 18.984375 19.863281 23.945312 7.300782 49.59375 11.289063 76.324219 11.296876 26.710937-.007813 52.359374-3.996094 76.308593-11.289063 7.0625-5.878906 13.441407-12.546875 18.988281-19.871094-27.53125 8.441407-60.226562 13.328125-95.296874 13.328125-35.074219 0-67.773438-4.882812-95.308594-13.328125" fill="#5597e2"/><path d="m324.566406 185.679688c-3.507812 1.257812-7.113281 2.453124-10.8125 3.589843-5.546875 7.324219-11.925781 13.992188-18.988281 19.871094-23.949219 7.292969-49.597656 11.28125-76.308594 11.289063-26.726562-.007813-52.378906-3.996094-76.324219-11.296876-7.0625-5.875-13.433593-12.542968-18.984374-19.863281-3.695313-1.136719-7.304688-2.332031-10.808594-3.589843 7.25 11.203124 16.195312 21.207031 26.519531 29.601562 24.953125 7.730469 51.710937 11.976562 79.597656 11.976562 27.875 0 54.632813-4.246093 79.585938-11.976562 10.328125-8.394531 19.273437-18.398438 26.523437-29.601562" fill="#54596e"/></svg>