<?xml version="1.0"?>
<svg xmlns="http://www.w3.org/2000/svg" viewBox="0 0 64 64" width="512" height="512"><g id="Filled_outline" data-name="Filled outline"><rect x="11" y="7" width="42" height="54" rx="16" ry="16" style="fill:#73cac2"/><path d="M11,33a8,8,0,0,0,8-8H3A8,8,0,0,0,11,33Z" style="fill:#fcf05a"/><path d="M8.184,25A2.962,2.962,0,0,0,8,26a3,3,0,0,0,6,0,2.962,2.962,0,0,0-.184-1Z" style="fill:#e4544f"/><path d="M11,17h0a8,8,0,0,1,8,8v0a0,0,0,0,1,0,0H3a0,0,0,0,1,0,0v0A8,8,0,0,1,11,17Z" style="fill:#394d5c"/><path d="M11,49a8,8,0,0,0,8-8H3A8,8,0,0,0,11,49Z" style="fill:#fcf05a"/><path d="M8.184,41A2.962,2.962,0,0,0,8,42a3,3,0,0,0,6,0,2.962,2.962,0,0,0-.184-1Z" style="fill:#e4544f"/><path d="M11,33h0a8,8,0,0,1,8,8v0a0,0,0,0,1,0,0H3a0,0,0,0,1,0,0v0A8,8,0,0,1,11,33Z" style="fill:#394d5c"/><path d="M53,33a8,8,0,0,0,8-8H45A8,8,0,0,0,53,33Z" style="fill:#fcf05a"/><path d="M50.184,25A2.962,2.962,0,0,0,50,26a3,3,0,0,0,6,0,2.962,2.962,0,0,0-.184-1Z" style="fill:#e4544f"/><path d="M53,17h0a8,8,0,0,1,8,8v0a0,0,0,0,1,0,0H45a0,0,0,0,1,0,0v0A8,8,0,0,1,53,17Z" style="fill:#394d5c"/><path d="M53,49a8,8,0,0,0,8-8H45A8,8,0,0,0,53,49Z" style="fill:#fcf05a"/><path d="M50.184,41A2.962,2.962,0,0,0,50,42a3,3,0,0,0,6,0,2.962,2.962,0,0,0-.184-1Z" style="fill:#e4544f"/><path d="M53,33h0a8,8,0,0,1,8,8v0a0,0,0,0,1,0,0H45a0,0,0,0,1,0,0v0A8,8,0,0,1,53,33Z" style="fill:#394d5c"/><polygon points="32 15 27 3 37 3 32 15" style="fill:#51a262"/><polygon points="23 3 27 15 14 9 23 3" style="fill:#51a262"/><polygon points="41 3 37 15 50 9 41 3" style="fill:#51a262"/><ellipse cx="32" cy="36" rx="10" ry="7" style="fill:#394d5c"/><ellipse cx="32" cy="36" rx="6" ry="3" style="fill:#bfbfbf"/><circle cx="23" cy="51" r="3" style="fill:#51a262"/><circle cx="32" cy="55" r="2" style="fill:#51a262"/><circle cx="40" cy="49" r="3" style="fill:#51a262"/><rect x="39" y="56" width="2" height="2" style="fill:#fff"/><rect x="29" y="47" width="2" height="2" style="fill:#fff"/><rect x="29" y="24" width="2" height="2" style="fill:#fff"/><rect x="33" y="24" width="2" height="2" style="fill:#fff"/><path d="M62,25a9.01,9.01,0,0,0-9-9c-.172,0-.339.016-.508.026A16.913,16.913,0,0,0,48.715,10.7l1.7-.787a1,1,0,0,0,.136-1.74l-9-6a1,1,0,0,0-1.5.516L38.906,6.119A17.26,17.26,0,0,0,37,6h-.167l1.09-2.615A1,1,0,0,0,37,2H27a1,1,0,0,0-.923,1.385L27.167,6H27a17.26,17.26,0,0,0-1.906.119L23.949,2.684a1,1,0,0,0-1.5-.516l-9,6a1,1,0,0,0,.136,1.74l1.7.787a16.913,16.913,0,0,0-3.777,5.331C11.339,16.016,11.172,16,11,16A8.994,8.994,0,0,0,6.9,33,8.988,8.988,0,0,0,10.76,49.988,16.978,16.978,0,0,0,27,62H37A16.978,16.978,0,0,0,53.24,49.988,8.988,8.988,0,0,0,57.1,33,9,9,0,0,0,62,25Zm-9-7a7.011,7.011,0,0,1,6.929,6H46.071A7.011,7.011,0,0,1,53,18Zm2,8a2,2,0,0,1-4,0ZM41.535,4.559l6.423,4.282L38.68,13.123ZM35.5,4,32,12.4,28.5,4Zm-13.035.559,2.855,8.564L16.042,8.841ZM11,18a7.011,7.011,0,0,1,6.929,6H4.071A7.011,7.011,0,0,1,11,18Zm2,8a2,2,0,0,1-4,0ZM4.071,26H7a4,4,0,0,0,8,0h2.929A7,7,0,0,1,4.071,26ZM11,34a7.011,7.011,0,0,1,6.929,6H4.071A7.011,7.011,0,0,1,11,34Zm2,8a2,2,0,0,1-4,0ZM4.071,42H7a4,4,0,0,0,8,0h2.929A7,7,0,0,1,4.071,42ZM37,60H27A14.986,14.986,0,0,1,12.8,49.819,8.993,8.993,0,0,0,15.1,33,8.99,8.99,0,0,0,13.55,16.373a15,15,0,0,1,3.707-4.768l9.324,4.3a1,1,0,0,0,1.368-1.224l-2.21-6.631C26.156,8.019,26.578,8,27,8h1l3.077,7.385a1,1,0,0,0,1.846,0L36,8h1c.422,0,.844.019,1.261.053l-2.21,6.631a1,1,0,0,0,1.368,1.224l9.324-4.3a15,15,0,0,1,3.707,4.768A8.99,8.99,0,0,0,48.9,33,8.993,8.993,0,0,0,51.2,49.819,14.986,14.986,0,0,1,37,60ZM53,48a7.011,7.011,0,0,1-6.929-6H49a4,4,0,0,0,8,0h2.929A7.011,7.011,0,0,1,53,48Zm-2-6h4a2,2,0,0,1-4,0Zm8.929-2H46.071a7,7,0,0,1,13.858,0ZM53,32a7.011,7.011,0,0,1-6.929-6H49a4,4,0,0,0,8,0h2.929A7.011,7.011,0,0,1,53,32Z"/><path d="M32,44c6.065,0,11-3.589,11-8s-4.935-8-11-8-11,3.589-11,8S25.935,44,32,44Zm0-14c4.962,0,9,2.691,9,6s-4.038,6-9,6-9-2.691-9-6S27.038,30,32,30Z"/><path d="M32,40c3.991,0,7-1.72,7-4s-3.009-4-7-4-7,1.72-7,4S28.009,40,32,40Zm0-6c3.052,0,5,1.185,5,2s-1.948,2-5,2-5-1.185-5-2S28.948,34,32,34Z"/><path d="M23,47a4,4,0,1,0,4,4A4,4,0,0,0,23,47Zm0,6a2,2,0,1,1,2-2A2,2,0,0,1,23,53Z"/><path d="M32,52a3,3,0,1,0,3,3A3,3,0,0,0,32,52Zm0,4a1,1,0,1,1,1-1A1,1,0,0,1,32,56Z"/><path d="M40,45a4,4,0,1,0,4,4A4,4,0,0,0,40,45Zm0,6a2,2,0,1,1,2-2A2,2,0,0,1,40,51Z"/><rect x="39" y="56" width="2" height="2"/><rect x="29" y="47" width="2" height="2"/><rect x="29" y="24" width="2" height="2"/><rect x="33" y="24" width="2" height="2"/></g></svg>
