<?xml version="1.0"?>
<svg xmlns="http://www.w3.org/2000/svg" viewBox="0 0 64 64" width="512" height="512"><g id="Filled_outline" data-name="Filled outline"><path d="M53,25v5H49v8h2a8,8,0,0,0,8-8V25a3,3,0,0,0-3-3h0A3,3,0,0,0,53,25Z" style="fill:#e97131"/><path d="M11,25v5h4v8H13a8,8,0,0,1-8-8V25a3,3,0,0,1,3-3H8A3,3,0,0,1,11,25Z" style="fill:#e97131"/><path d="M23,15H41a8,8,0,0,1,8,8V51a0,0,0,0,1,0,0H15a0,0,0,0,1,0,0V23A8,8,0,0,1,23,15Z" style="fill:#ebb562"/><path d="M52,41c0,6.075-8.954,2-20,2s-20,4.075-20-2,8.954-20,20-20S52,34.925,52,41Z" style="fill:#fcf05a"/><path d="M41,24.047V28a2.991,2.991,0,0,0,5.663,1.354A26.856,26.856,0,0,0,41,24.047Z" style="fill:#e4544f"/><path d="M38,30a3,3,0,0,0,3-3V24.047a17.6,17.6,0,0,0-6-2.707V27A3,3,0,0,0,38,30Z" style="fill:#e97131"/><path d="M35,26V21.34a13.405,13.405,0,0,0-6,0V26a3,3,0,0,0,6,0Z" style="fill:#e4544f"/><path d="M23,24.047V27a3,3,0,0,0,6,0V21.34A17.6,17.6,0,0,0,23,24.047Z" style="fill:#e97131"/><path d="M17.337,29.354A2.991,2.991,0,0,0,23,28V24.047A26.856,26.856,0,0,0,17.337,29.354Z" style="fill:#e4544f"/><path d="M21,19a8,8,0,0,0,8-8H13A8,8,0,0,0,21,19Z" style="fill:#fcf05a"/><path d="M18.184,11A2.962,2.962,0,0,0,18,12a3,3,0,0,0,6,0,2.962,2.962,0,0,0-.184-1Z" style="fill:#e4544f"/><path d="M21,3h0a8,8,0,0,1,8,8v0a0,0,0,0,1,0,0H13a0,0,0,0,1,0,0v0A8,8,0,0,1,21,3Z" style="fill:#394d5c"/><path d="M43,19a8,8,0,0,0,8-8H35A8,8,0,0,0,43,19Z" style="fill:#fcf05a"/><path d="M40.184,11A2.962,2.962,0,0,0,40,12a3,3,0,0,0,6,0,2.962,2.962,0,0,0-.184-1Z" style="fill:#e4544f"/><path d="M43,3h0a8,8,0,0,1,8,8v0a0,0,0,0,1,0,0H35a0,0,0,0,1,0,0v0a8,8,0,0,1,8-8Z" style="fill:#394d5c"/><path d="M32,38a43.036,43.036,0,0,0-19.48.023A10.53,10.53,0,0,0,12,41c0,6.075,8.954,2,20,2s20,4.075,20-2a10.805,10.805,0,0,0-.567-3.134C46.392,38.674,38.177,39.544,32,38Z" style="fill:#e4544f"/><path d="M15,51H27a0,0,0,0,1,0,0v8a2,2,0,0,1-2,2H17a2,2,0,0,1-2-2V51A0,0,0,0,1,15,51Z" style="fill:#e97131"/><rect x="18" y="58" width="2" height="3" style="fill:#fcf05a"/><rect x="22" y="58" width="2" height="3" style="fill:#fcf05a"/><path d="M37,51H49a0,0,0,0,1,0,0v8a2,2,0,0,1-2,2H39a2,2,0,0,1-2-2V51A0,0,0,0,1,37,51Z" style="fill:#e97131"/><rect x="40" y="58" width="2" height="3" style="fill:#fcf05a"/><rect x="44" y="58" width="2" height="3" style="fill:#fcf05a"/><rect x="30" y="46" width="5" height="2" style="fill:#e97131"/><rect x="26" y="46" width="2" height="2" style="fill:#e97131"/><rect x="37" y="46" width="2" height="2" style="fill:#e97131"/><rect x="30" y="46" width="5" height="2"/><rect x="26" y="46" width="2" height="2"/><rect x="37" y="46" width="2" height="2"/><path d="M56,21a4,4,0,0,0-4,4v4H50V23a8.985,8.985,0,0,0-1.475-4.91,9.008,9.008,0,1,0-14-4.09h-5.05a9,9,0,1,0-14,4.09A8.985,8.985,0,0,0,14,23v6H12V25a4,4,0,0,0-8,0v5a9.009,9.009,0,0,0,7.266,8.817A10.152,10.152,0,0,0,11,41a4.046,4.046,0,0,0,1.247,3.2A4.209,4.209,0,0,0,14,45.082V59a3,3,0,0,0,3,3h8a3,3,0,0,0,3-3V52h8v7a3,3,0,0,0,3,3h8a3,3,0,0,0,3-3V45.087a4.193,4.193,0,0,0,1.753-.889A4.046,4.046,0,0,0,53,41a10.192,10.192,0,0,0-.264-2.175A9.011,9.011,0,0,0,60,30V25A4,4,0,0,0,56,21ZM43,4a7.011,7.011,0,0,1,6.929,6H36.071A7.011,7.011,0,0,1,43,4Zm2,8a2,2,0,0,1-4,0Zm-6,0a4,4,0,0,0,8,0h2.929a7,7,0,0,1-13.858,0Zm-3.478,4a8.962,8.962,0,0,0,11.283,3.145A6.969,6.969,0,0,1,48,23v6.458C44.1,24.383,38.291,20,32,20s-12.095,4.383-16,9.458V23a6.969,6.969,0,0,1,1.2-3.855A8.962,8.962,0,0,0,28.478,16Zm9.871,13.409A1.963,1.963,0,0,1,44,30a2,2,0,0,1-2-2V26.041A26.661,26.661,0,0,1,45.393,29.409ZM40,24.577V27a2,2,0,0,1-4,0V22.648A16.866,16.866,0,0,1,40,24.577Zm-6-2.414V26a2,2,0,0,1-4,0V22.163a12.351,12.351,0,0,1,4,0Zm-6,.485V27a2,2,0,0,1-4,0V24.577A16.866,16.866,0,0,1,28,22.648Zm-6,3.393V28a2,2,0,0,1-2,2,1.959,1.959,0,0,1-1.393-.592A26.72,26.72,0,0,1,22,26.041ZM21,4a7.011,7.011,0,0,1,6.929,6H14.071A7.011,7.011,0,0,1,21,4Zm2,8a2,2,0,0,1-4,0Zm-8.929,0H17a4,4,0,0,0,8,0h2.929a7,7,0,0,1-13.858,0ZM17.36,30.985a3.957,3.957,0,0,0,6.065-.95,3.948,3.948,0,0,0,6-1,3.918,3.918,0,0,0,5.15,0,3.948,3.948,0,0,0,6,1,3.957,3.957,0,0,0,6.065.95,27.536,27.536,0,0,1,3.433,6.076c-4.659.679-12.192,1.379-17.83-.031a43.711,43.711,0,0,0-18.163-.346A27.926,27.926,0,0,1,17.36,30.985ZM11.827,36.9A7.014,7.014,0,0,1,6,30V25a2,2,0,0,1,4,0v6h4v1.385A25.189,25.189,0,0,0,11.827,36.9ZM26,59a1,1,0,0,1-1,1H24V58H22v2H20V58H18v2H17a1,1,0,0,1-1-1V52H26Zm22,0a1,1,0,0,1-1,1H46V58H44v2H42V58H40v2H39a1,1,0,0,1-1-1V52H48Zm0-9H16V45.328a44.653,44.653,0,0,0,6.246-.532A75.648,75.648,0,0,1,32,44a75.648,75.648,0,0,1,9.754.8,50.085,50.085,0,0,0,5.889.544c.126,0,.235-.014.357-.017Zm2.432-7.3c-1.183,1.041-4.538.613-8.424.115A77.365,77.365,0,0,0,32,42a77.365,77.365,0,0,0-10.008.812c-3.887.5-7.241.926-8.424-.115-.14-.124-.568-.5-.568-1.7a8.57,8.57,0,0,1,.325-2.128,42.1,42.1,0,0,1,18.432.1,35.165,35.165,0,0,0,8.377.887,72.441,72.441,0,0,0,10.571-.869A8.4,8.4,0,0,1,51,41C51,42.2,50.572,42.573,50.432,42.7ZM58,30a7.014,7.014,0,0,1-5.827,6.9A25.189,25.189,0,0,0,50,32.385V31h4V25a2,2,0,0,1,4,0Z"/></g></svg>
