<?xml version="1.0" encoding="iso-8859-1"?>
<!-- Generator: Adobe Illustrator 21.0.0, SVG Export Plug-In . SVG Version: 6.00 Build 0)  -->
<svg xmlns="http://www.w3.org/2000/svg" xmlns:xlink="http://www.w3.org/1999/xlink" version="1.1" id="Capa_1" x="0px" y="0px" viewBox="0 0 512 512" style="enable-background:new 0 0 512 512;" xml:space="preserve" width="512" height="512">
<g>
	<path style="fill:#FFDF24;" d="M467.129,119.524h-56.288c-8.188,0-14.85-6.67-14.85-14.918c0-8.199,6.662-14.869,14.85-14.869   h56.309c24.73,0,44.851-20.128,44.851-44.869S491.88,0,467.149,0H232.855c-24.731,0-44.851,20.128-44.851,44.869v31.635   c0,8.284,6.716,15,15,15s15-6.716,15-15V44.869c0-8.199,6.662-14.869,14.851-14.869h234.294C475.338,30,482,36.67,482,44.869   s-6.662,14.869-14.851,14.869h-56.309c-24.73,0-44.85,20.128-44.85,44.918c0,24.741,20.12,44.869,44.85,44.869h56.288   c8.188,0,14.85,6.67,14.85,14.869v84.305c0,8.284,6.716,15,15,15s15-6.716,15-15v-84.305   C511.979,139.652,491.859,119.524,467.129,119.524z"/>
	<path style="fill:#09607D;" d="M249.75,108.27c0,6.31-1.23,12.44-3.67,18.21l-4.72,11.75h-75.5l-4.38-8.46   c-3.42-6.6-5.23-14.03-5.23-21.5c0-25.79,20.98-46.77,46.75-46.77C228.78,61.5,249.75,82.48,249.75,108.27z"/>
	<path style="fill:#00272A;" d="M241.36,138.23H203V61.5c25.78,0,46.75,20.98,46.75,46.77c0,6.31-1.23,12.44-3.67,18.21   L241.36,138.23z"/>
	<path style="fill:#00ECCF;" d="M406.01,308.88c0,112-91.07,203.12-203.01,203.12C91.07,512,0,420.88,0,308.88   s91.07-203.12,203-203.12C314.94,105.76,406.01,196.88,406.01,308.88z"/>
	<path style="fill:#00CAB1;" d="M406.01,308.88c0,112-91.07,203.12-203.01,203.12V105.76C314.94,105.76,406.01,196.88,406.01,308.88   z"/>
	<path style="fill:#F3F8F9;" d="M344.87,308.88c0,78.27-63.64,141.95-141.87,141.95c-78.22,0-141.86-63.68-141.86-141.95   S124.78,166.93,203,166.93C281.23,166.93,344.87,230.61,344.87,308.88z"/>
	<path style="fill:#E0E0E0;" d="M344.87,308.88c0,78.27-63.64,141.95-141.87,141.95v-283.9   C281.23,166.93,344.87,230.61,344.87,308.88z"/>
	<path style="fill:#09607D;" d="M283.51,308.88c0,8.29-6.71,15-15,15h-54.93c-3.77,0-7.36-0.82-10.58-2.3   c-8.84-4.03-15-12.95-15-23.28v-53.53c0-8.29,6.72-15,15-15c8.29,0,15,6.71,15,15v49.11h50.51   C276.8,293.88,283.51,300.6,283.51,308.88z"/>
	<path style="fill:#00272A;" d="M283.51,308.88c0,8.29-6.71,15-15,15h-54.93c-3.77,0-7.36-0.82-10.58-2.3v-91.81   c8.29,0,15,6.71,15,15v49.11h50.51C276.8,293.88,283.51,300.6,283.51,308.88z"/>
</g>















</svg>
