<svg height="438pt" viewBox="-34 0 438 438.19691" width="438pt" xmlns="http://www.w3.org/2000/svg"><path d="m355.082031 424.546875.027344-4.945313c.230469-36.464843-26.097656-67.675781-62.078125-73.59375l-60.289062-7.664062.277343-43.289062c40.238281-7.777344 82.054688-20.949219 82.054688-20.949219s-23.882813-85.820313-14.398438-164.410157c1.085938-4.234374 1.839844-8.597656 1.867188-13.167968.191406-30.160156-24.105469-54.765625-54.265625-54.957032-14.558594-.09375-27.742188 5.609376-37.589844 14.832032-13.792969-25.347656-26.910156-42.546875-57.808594-42.742188-45.242187-.289062-82.152344 36.15625-82.4375 81.398438-.027344 3.929687.320313 7.765625.832032 11.550781 2.003906 33.46875 4.667968 129.855469-29.175782 152.113281-17.085937 11.234375 33.152344 28.804688 95.339844 37.183594l-.265625 41.660156-60.378906 7.074219c-36.054688 5.457031-62.777344 36.335937-63.011719 72.800781l-.027344 4.945313" fill="#f6d831"/><path d="m355.082031 438.195312c-.027343 0-.0625 0-.09375 0-7.542969-.050781-13.617187-6.207031-13.5625-13.746093l.035157-4.941407c.1875-29.925781-21.113282-55.171874-50.640626-60.027343l-59.792968-7.589844c-6.851563-.875-11.972656-6.726563-11.933594-13.632813l.273438-43.292968c.039062-6.507813 4.671874-12.089844 11.066406-13.320313 26.066406-5.035156 53.066406-12.460937 68.238281-16.875-6.371094-27.472656-19.152344-93.746093-11.550781-156.707031.066406-.59375.175781-1.179688.324218-1.753906.964844-3.765625 1.417969-6.898438 1.441407-9.859375.070312-10.945313-4.128907-21.257813-11.816407-29.046875-7.683593-7.785156-17.945312-12.113282-28.886718-12.179688-10.496094.1875-20.425782 3.894532-28.164063 11.140625-3.082031 2.890625-7.292969 4.164063-11.507812 3.519531-4.171875-.675781-7.800781-3.242187-9.820313-6.953124-13.339844-24.515626-23.132812-35.472657-45.902344-35.621094-.144531 0-.292968 0-.4375 0-37.445312 0-68.019531 30.332031-68.261718 67.832031-.019532 3.289063.28125 6.480469.707031 9.636719 2.886719 47.519531 2.660156 126.3125-26.707031 158.085937 12.601562 5.699219 40.140625 13.984375 81.160156 19.507813 6.808594.917968 11.875 6.746094 11.835938 13.617187l-.257813 41.660157c-.039063 6.894531-5.222656 12.675781-12.0625 13.472656l-60.378906 7.082031c-29.144531 4.414063-50.757813 29.386719-50.945313 59.320313l-.035156 4.953124c-.054688 7.503907-6.152344 13.558594-13.652344 13.558594-.027344 0-.0625 0-.09375 0-7.542968-.054687-13.6171872-6.207031-13.5624998-13.746094l.0351558-4.949218c.273438-43.445313 31.652344-79.699219 74.621094-86.199219l48.839844-5.730469.113281-17.695312c-38.988281-6-93.1875-18.226563-98.1875-40.1875-1.765625-7.757813 1.625-15.3125 9.078125-20.210938 18.367188-12.089844 27.414063-66.996094 23.046875-139.886718-.585937-4.007813-.886719-8.292969-.859375-12.46875.332032-52.488282 43.148438-94.960938 95.566406-94.960938h.613282c32.324218.207031 49.332031 16.742188 61.933594 36.519531 10.179687-5.695312 22.074218-8.285156 33.457031-8.605469 18.242187.117188 35.335937 7.324219 48.148437 20.300782 12.8125 12.972656 19.800782 30.164062 19.6875 48.398437-.027344 4.90625-.707031 10.003907-2.066406 15.550781-8.78125 74.816407 13.867188 157.449219 14.097656 158.273438 1.972656 7.09375-2.027344 14.472656-9.050781 16.679688-1.582031.5-35.875 11.261718-72.574219 19.09375l-.125 20.105468 48.277344 6.140625c43.367188 7.121094 74.28125 43.773438 74.015625 87.226563l-.035156 4.945312c-.050781 7.515625-6.148438 13.566406-13.648438 13.566406zm0 0" fill="#5c128d"/><path d="m356.378906 423.46875v-4.945312c0-36.464844-26.527344-67.511719-62.542968-73.195313l-46.683594-7.371094h-122.878906l-46.679688 7.371094c-36.019531 5.683594-62.546875 36.730469-62.546875 73.195313v4.945312" fill="#f35cd2"/><g fill="#5c128d"><path d="m356.378906 437.125c-7.539062 0-13.652344-6.113281-13.652344-13.65625v-4.945312c0-29.925782-21.457031-55.039063-51.019531-59.707032l-45.625-7.207031h-120.734375l-45.621094 7.207031c-29.5625 4.667969-51.023437 29.78125-51.023437 59.707032v4.945312c0 7.542969-6.113281 13.65625-13.652344 13.65625-7.542969 0-13.65625-6.113281-13.65625-13.65625v-4.945312c0-43.445313 31.15625-79.90625 74.074219-86.679688l46.671875-7.371094c.707031-.113281 1.421875-.167968 2.136719-.167968h122.878906c.714844 0 1.425781.050781 2.132812.167968l46.679688 7.371094c42.914062 6.773438 74.066406 43.234375 74.066406 86.679688v4.945312c0 7.542969-6.113281 13.65625-13.65625 13.65625zm0 0"/><path d="m260.808594 437.125h-245.761719c-7.539063 0-13.652344-6.113281-13.652344-13.65625 0-7.539062 6.113281-13.652344 13.652344-13.652344h245.761719c7.539062 0 13.652344 6.113282 13.652344 13.652344 0 7.542969-6.113282 13.65625-13.652344 13.65625zm0 0"/></g></svg>