<svg height="395pt" viewBox="-13 0 395 395.94667" width="395pt" xmlns="http://www.w3.org/2000/svg"><path d="m355.460938 382.292969v-4.945313c0-36.464844-26.53125-67.511718-62.546876-73.199218l-46.679687-7.367188v-51.019531c15.078125 0 27.304687-12.226563 27.304687-27.308594v-54.613281c15.082032 0 27.308594-12.226563 27.308594-27.304688 0-15.082031-12.226562-27.308594-27.308594-27.308594v-57.25h-177.492187v57.25c-15.082031 0-27.308594 12.226563-27.308594 27.308594 0 15.078125 12.226563 27.304688 27.308594 27.304688v54.613281c0 15.082031 12.226563 27.308594 27.304687 27.308594v51.019531l-46.679687 7.371094c-36.015625 5.6875-62.546875 36.730468-62.546875 73.195312v4.945313" fill="#ffdea2"/><path d="m355.460938 395.945312c-7.539063 0-13.652344-6.113281-13.652344-13.652343v-4.945313c0-29.925781-21.460938-55.039062-51.023438-59.707031l-46.683594-7.371094c-6.636718-1.046875-11.523437-6.769531-11.523437-13.488281v-51.019531c0-7.542969 6.113281-13.65625 13.65625-13.65625 7.523437 0 13.652344-6.125 13.652344-13.652344v-54.613281c0-7.539063 6.113281-13.652344 13.652343-13.652344 7.527344 0 13.652344-6.128906 13.652344-13.652344 0-7.527344-6.125-13.65625-13.652344-13.65625-7.539062 0-13.652343-6.113281-13.652343-13.652344v-43.59375h-150.1875v43.59375c0 7.539063-6.113281 13.652344-13.652344 13.652344-7.527344 0-13.652344 6.128906-13.652344 13.65625 0 7.523438 6.125 13.652344 13.652344 13.652344 7.539063 0 13.652344 6.113281 13.652344 13.652344v54.613281c0 7.527344 6.128906 13.652344 13.652343 13.652344 7.542969 0 13.65625 6.113281 13.65625 13.65625v51.019531c0 6.71875-4.886718 12.4375-11.519531 13.484375l-46.683593 7.375c-29.566407 4.667969-51.023438 29.777344-51.023438 59.707031v4.945313c0 7.539062-6.113281 13.652343-13.65625 13.652343-7.539062 0-13.652344-6.113281-13.652344-13.652343v-4.945313c0-43.445312 31.152344-79.90625 74.074219-86.679687l35.152344-5.554688v-28.039062c-15.890625-5.632813-27.304688-20.820313-27.304688-38.621094v-43.300781c-15.894531-5.632813-27.308593-20.820313-27.308593-38.617188 0-17.800781 11.414062-32.988281 27.308593-38.621094v-45.933593c0-7.539063 6.113281-13.652344 13.652344-13.652344h177.492187c7.539063 0 13.652344 6.113281 13.652344 13.652344v45.933593c15.894532 5.632813 27.308594 20.820313 27.308594 38.621094 0 17.796875-11.414062 32.984375-27.308594 38.617188v43.300781c0 17.800781-11.414062 32.988281-27.304687 38.621094v28.039062l35.160156 5.554688c42.914063 6.773437 74.066406 43.234375 74.066406 86.679687v4.945313c0 7.539062-6.113281 13.652343-13.652343 13.652343zm0 0" fill="#5c128d"/><path d="m355.460938 382.292969v-4.945313c0-36.464844-26.53125-67.511718-62.546876-73.199218l-46.679687-7.367188h-122.882813l-46.679687 7.371094c-36.015625 5.6875-62.546875 36.730468-62.546875 73.195312v4.945313" fill="#8690c3"/><path d="m355.460938 395.945312c-7.539063 0-13.652344-6.113281-13.652344-13.652343v-4.945313c0-29.925781-21.460938-55.039062-51.023438-59.707031l-45.625-7.207031h-120.734375l-45.617187 7.207031c-29.570313 4.667969-51.027344 29.777344-51.027344 59.707031v4.945313c0 7.539062-6.113281 13.652343-13.65625 13.652343-7.539062 0-13.652344-6.113281-13.652344-13.652343v-4.945313c0-43.445312 31.152344-79.90625 74.074219-86.679687l46.671875-7.375c.707031-.109375 1.421875-.164063 2.132812-.164063h122.882813c.710937 0 1.425781.050782 2.132813.164063l46.679687 7.375c42.914063 6.773437 74.066406 43.234375 74.066406 86.679687v4.945313c0 7.539062-6.113281 13.652343-13.652343 13.652343zm0 0" fill="#5c128d"/><path d="m273.539062 395.945312h-259.414062c-7.539062 0-13.652344-6.113281-13.652344-13.652343 0-7.539063 6.113282-13.652344 13.652344-13.652344h259.414062c7.539063 0 13.652344 6.113281 13.652344 13.652344 0 7.539062-6.113281 13.652343-13.652344 13.652343zm0 0" fill="#5c128d"/><path d="m273.539062 68.265625v-2.71875c0-28.660156-23.234374-51.894531-51.894531-51.894531h-139.25c0 30.164062 24.449219 54.613281 54.613281 54.613281h27.304688" fill="#816982"/><path d="m273.539062 81.921875c-7.539062 0-13.652343-6.113281-13.652343-13.65625v-2.71875c0-21.085937-17.152344-38.238281-38.238281-38.238281h-123.261719c5.632812 15.890625 20.820312 27.304687 38.621093 27.304687h27.304688c7.539062 0 13.652344 6.113281 13.652344 13.652344 0 7.542969-6.113282 13.65625-13.652344 13.65625h-27.304688c-37.640624 0-68.269531-30.628906-68.269531-68.269531 0-7.539063 6.113281-13.652344 13.65625-13.652344h139.253907c36.140624 0 65.542968 29.40625 65.542968 65.546875v2.71875c0 7.542969-6.113281 13.65625-13.652344 13.65625zm0 0" fill="#5c128d"/></svg>